<svg width="38" height="24" viewBox="0 0 38 24" fill="none" xmlns="http://www.w3.org/2000/svg">
<g clip-path="url(#clip0_46_830)">
<path opacity="0.07" d="M35 0H3C1.3 0 0 1.3 0 3V21C0 22.7 1.4 24 3 24H35C36.7 24 38 22.7 38 21V3C38 1.3 36.6 0 35 0Z" fill="black"/>
<path d="M35 1C36.1 1 37 1.9 37 3V21C37 22.1 36.1 23 35 23H3C1.9 23 1 22.1 1 21V3C1 1.9 1.9 1 3 1H35Z" fill="#006FCF"/>
<path d="M22.012 19.9359V11.5149L37 11.5279V13.8539L35.268 15.7059L37 17.5729V19.9479H34.234L32.764 18.3259L31.304 19.9539L22.012 19.9339V19.9359Z" fill="white"/>
<path d="M23.013 19.0119V12.4419H28.585V13.9549H24.817V14.9829H28.495V16.4709H24.817V17.4809H28.585V19.0119H23.013Z" fill="#006FCF"/>
<path d="M28.557 19.0119L31.64 15.7229L28.557 12.4409H30.943L32.827 14.5239L34.717 12.4419H37V12.4929L33.983 15.7229L37 18.9199V19.0129H34.693L32.776 16.9099L30.878 19.0139H28.557V19.0119Z" fill="#006FCF"/>
<path d="M22.71 4.04004H26.324L27.593 6.92104V4.04004H32.053L32.823 6.19904L33.594 4.04004H37V12.461H19L22.71 4.04004Z" fill="white"/>
<path d="M23.395 4.95508L20.479 11.5211H22.479L23.029 10.2061H26.009L26.559 11.5211H28.609L25.705 4.95508H23.395ZM23.645 8.73208L24.52 6.64208L25.393 8.73208H23.645Z" fill="#006FCF"/>
<path d="M28.581 11.5199V4.95288L31.392 4.96288L32.84 8.99988L34.296 4.95388H37V11.5189L35.26 11.5349V7.02488L33.616 11.5189H32.026L30.35 7.00988V11.5199H28.582H28.581Z" fill="#006FCF"/>
</g>
<defs>
<clipPath id="clip0_46_830">
<rect width="38" height="24" fill="white"/>
</clipPath>
</defs>
</svg>
