<svg width="58" height="57" viewBox="0 0 58 57" fill="none" xmlns="http://www.w3.org/2000/svg">
<g clip-path="url(#clip0_35_730)">
<path d="M52.1902 28.5H43.1919V21.375C43.1919 17.4451 46.42 14.25 50.3905 14.25H51.2903C52.7863 14.25 53.9898 13.0588 53.9898 11.5781V6.23438C53.9898 4.75371 52.7863 3.5625 51.2903 3.5625H50.3905C40.4474 3.5625 32.3939 11.5336 32.3939 21.375V48.0938C32.3939 51.0439 34.8122 53.4375 37.7929 53.4375H52.1902C55.1708 53.4375 57.5891 51.0439 57.5891 48.0938V33.8438C57.5891 30.8936 55.1708 28.5 52.1902 28.5ZM19.7963 28.5H10.798V21.375C10.798 17.4451 14.0261 14.25 17.9966 14.25H18.8964C20.3924 14.25 21.5959 13.0588 21.5959 11.5781V6.23438C21.5959 4.75371 20.3924 3.5625 18.8964 3.5625H17.9966C8.05348 3.5625 0 11.5336 0 21.375V48.0938C0 51.0439 2.41829 53.4375 5.39898 53.4375H19.7963C22.777 53.4375 25.1952 51.0439 25.1952 48.0938V33.8438C25.1952 30.8936 22.777 28.5 19.7963 28.5Z" fill="#F1F1F1"/>
</g>
<defs>
<clipPath id="clip0_35_730">
<rect width="57.5891" height="57" fill="white"/>
</clipPath>
</defs>
</svg>
