<svg width="57" height="57" viewBox="0 0 57 57" fill="none" xmlns="http://www.w3.org/2000/svg">
<path d="M51.6562 28.5H42.75V21.375C42.75 17.4451 45.9451 14.25 49.875 14.25H50.7656C52.2463 14.25 53.4375 13.0588 53.4375 11.5781V6.23438C53.4375 4.75371 52.2463 3.5625 50.7656 3.5625H49.875C40.0336 3.5625 32.0625 11.5336 32.0625 21.375V48.0938C32.0625 51.0439 34.4561 53.4375 37.4062 53.4375H51.6562C54.6064 53.4375 57 51.0439 57 48.0938V33.8438C57 30.8936 54.6064 28.5 51.6562 28.5ZM19.5938 28.5H10.6875V21.375C10.6875 17.4451 13.8826 14.25 17.8125 14.25H18.7031C20.1838 14.25 21.375 13.0588 21.375 11.5781V6.23438C21.375 4.75371 20.1838 3.5625 18.7031 3.5625H17.8125C7.97109 3.5625 0 11.5336 0 21.375V48.0938C0 51.0439 2.39355 53.4375 5.34375 53.4375H19.5938C22.5439 53.4375 24.9375 51.0439 24.9375 48.0938V33.8438C24.9375 30.8936 22.5439 28.5 19.5938 28.5Z" fill="#F1F1F1"/>
</svg>
