<svg width="36" height="23" viewBox="0 0 36 23" fill="none" xmlns="http://www.w3.org/2000/svg">
<path d="M33.4348 0L33.8146 0.000681578C33.9173 0.00136315 34.0202 0.0024991 34.1236 0.00522539C34.3038 0.0102236 34.5142 0.0199928 34.7105 0.0552074C34.8808 0.0858782 35.024 0.132452 35.1612 0.202427C35.4358 0.342049 35.6589 0.565387 35.7982 0.840152C35.8678 0.976467 35.9141 1.11869 35.9448 1.29067C35.9798 1.48469 35.9895 1.69575 35.9943 1.87682C35.9973 1.97906 35.9986 2.0813 35.9989 2.1858C36 2.31235 36 2.43867 36 2.56544V19.9042C36 20.031 36 20.1573 35.9991 20.2863C35.9986 20.3886 35.9973 20.4908 35.9945 20.593C35.9895 20.7739 35.9798 20.9849 35.9443 21.1812C35.9186 21.3374 35.8691 21.4887 35.7978 21.6299C35.6582 21.9048 35.4347 22.1281 35.1598 22.2677C35.0235 22.3372 34.8808 22.3838 34.712 22.4142C34.5119 22.4499 34.2924 22.4596 34.1273 22.4642C34.0234 22.4665 33.9201 22.468 33.814 22.4685C33.6879 22.4694 33.5611 22.4694 33.4348 22.4694H2.56021C2.43526 22.4694 2.3103 22.4694 2.18308 22.4685C2.08083 22.4681 1.97859 22.4667 1.87637 22.4644C1.70734 22.4599 1.48787 22.4499 1.28931 22.4144C1.13231 22.3883 0.98019 22.3385 0.838107 22.2668C0.701819 22.1975 0.577427 22.107 0.469604 21.9987C0.36144 21.8907 0.271105 21.7662 0.201973 21.6299C0.130577 21.4879 0.0810951 21.3358 0.0552074 21.179C0.0197656 20.9829 0.00976921 20.7727 0.00522539 20.5933C0.00265873 20.4907 0.00114405 20.3881 0.000681577 20.2854L0 19.9839V2.48592L0.000454349 2.1849C0.000923397 2.08212 0.00243808 1.97934 0.00499816 1.8766C0.00999636 1.69666 0.0197656 1.48651 0.0554346 1.28885C0.0813737 1.13229 0.130856 0.980548 0.2022 0.838789C0.271266 0.702929 0.361234 0.578882 0.470285 0.470058C0.578369 0.361804 0.702893 0.271325 0.839243 0.201973C0.980979 0.130766 1.13262 0.0812903 1.28908 0.0552074C1.4856 0.0199928 1.69621 0.0102236 1.8766 0.00522539C1.97929 0.0024991 2.0822 0.00136315 2.18421 0.000681578L2.56521 0H33.4348Z" fill="white"/>
</svg>
