<svg width="38" height="24" viewBox="0 0 38 24" fill="none" xmlns="http://www.w3.org/2000/svg">
<path d="M34.1319 0H3.35729C3.2291 0 3.10068 0 2.97271 0.000679476C2.86467 0.00158545 2.75686 0.00271791 2.64883 0.0056623C2.4135 0.0120041 2.17614 0.0260466 1.94376 0.0677212C1.71071 0.107649 1.48491 0.182076 1.27379 0.288551C0.849383 0.504416 0.504416 0.849383 0.288551 1.27379C0.181886 1.48499 0.107451 1.71097 0.0677212 1.94421C0.0255936 2.17682 0.0117776 2.41395 0.00543581 2.64905C0.00267546 2.75699 0.00101443 2.86496 0.000452984 2.97294C0 3.10068 0 3.22887 0 3.35729V20.6427C0 20.7711 0 20.8991 0.000452984 21.0275C0.00113246 21.1353 0.00249141 21.2434 0.00543581 21.3514C0.0117776 21.5861 0.0258201 21.8234 0.0677212 22.0558C0.107369 22.289 0.181729 22.515 0.288325 22.7262C0.395497 22.9372 0.535389 23.1298 0.702805 23.297C0.869935 23.4645 1.06258 23.6044 1.27357 23.7115C1.48805 23.8209 1.70775 23.8904 1.94398 23.9327C2.17614 23.9742 2.4135 23.9882 2.64883 23.9946C2.75686 23.9971 2.86467 23.9984 2.97271 23.9991C3.10068 24 3.2291 24 3.35729 24H34.1319C34.2599 24 34.3883 24 34.5163 23.9991C34.6241 23.9987 34.7319 23.9971 34.8404 23.9946C35.0753 23.9882 35.3126 23.9742 35.5455 23.9327C35.7786 23.8928 36.0044 23.8182 36.2154 23.7115C36.6396 23.4953 36.9845 23.1504 37.2007 22.7262C37.3101 22.5117 37.3794 22.292 37.4213 22.0558C37.4634 21.8234 37.477 21.5861 37.4833 21.3514C37.4863 21.2434 37.4879 21.1353 37.4883 21.0275C37.4892 20.8991 37.4892 20.7711 37.4892 20.6427V3.35752C37.4892 3.2291 37.4892 3.1009 37.4883 2.97271C37.4879 2.86481 37.4862 2.75692 37.4833 2.64905C37.477 2.41395 37.4634 2.17682 37.4213 1.94421C37.3818 1.71093 37.3074 1.48492 37.2007 1.27379C36.9847 0.849457 36.6398 0.504518 36.2154 0.288551C36.0043 0.182186 35.7785 0.107837 35.5455 0.0679477C35.3126 0.0260466 35.0753 0.0122306 34.8404 0.0058888C34.7324 0.00314536 34.6243 0.00148433 34.5163 0.000905969C34.3883 0 34.2599 0 34.1319 0Z" fill="black"/>
</svg>
